# xmcd
#
# Track frame offsets: 
#        182
#        17517
#        40567
#        56587
#        74052
#        93152
#        105635
#        120102
#        138010
#        151300
#        163530
#        178537
#        197680
#        216535
#
# Disc length: 3089 seconds
#
# Revision: 3
# Processed by: cddbd v1.5.2PL0 Copyright (c) Steve Scherf et al.
# Submitted via: ExactAudioCopy v0.99pb5
#
DISCID=b10c0f0e
DTITLE=Various Artist - Country Ballads
DYEAR=1994
DGENRE=Country
TTITLE0=Clint Black - Desperado
TTITLE1=Pure Prairie League - Early morning riser
TTITLE2=Alabama - The closer you get
TTITLE3=Restless Heart - As far as I can tell
TTITLE4=Paul Overstreet - Love is strong
TTITLE5=George Strait - I get along with you
TTITLE6=Steve Wariner - What I didn't do
TTITLE7=Dan Fogelberg - The long way
TTITLE8=Dolly Parton - I will always love you
TTITLE9=Nilsson - Everybody's talkin'
TTITLE10=Bellamy Brothers - Let your love flow
TTITLE11=Desert Rose Band - I still believe in you
TTITLE12=Ozark Mountain Daredevils - Jacky Blue
TTITLE13=Dillard and Clark - So sad
EXTD=YEAR: 1994
EXTT0=
EXTT1=
EXTT2=
EXTT3=
EXTT4=
EXTT5=
EXTT6=
EXTT7=
EXTT8=
EXTT9=
EXTT10=
EXTT11=
EXTT12=
EXTT13=
PLAYORDER=
